<?xml version="1.0" encoding="UTF-8"?>
<svg id="Layer_2" data-name="Layer 2" xmlns="http://www.w3.org/2000/svg" viewBox="0 0 400.35 356.65">
  <defs>
    <style>
      .cls-1 {
        fill-rule: evenodd;
      }
    </style>
  </defs>
  <g id="Layer_8" data-name="Layer 8">
    <g>
      <path class="cls-1" d="M158.25,1.6c-2.1,1-4,3.2-5.4,6.2l-2.2,4.5,1.7,14.6c.9,8,2.5,21.1,3.6,29.1,1,8,2.6,20.1,3.4,27,.8,6.9,1.8,14,2.1,15.7.4,2.4.2,3.3-.8,3.3-1.8,0-4.2-2.7-19.3-22-23.3-29.9-23.5-30-34.1-30-7.7,0-11.7,2.2-14.4,7.7l-2.2,4.6,1.7,15.1c1,8.3,2,17.2,2.3,19.8l.5,4.8h-11.9c-9.6,0-12.5.3-15.3,1.9-4.7,2.5-7.1,6-7.7,11.4-1.3,11.7,2.4,16.4,21.1,27.1,7.5,4.2,13.8,8.1,14.1,8.6.4.6-15,1-41.7,1-39.3,0-42.6.1-45.8,1.9-4.7,2.5-7.1,6-7.7,11.4-1.5,13.4,3,17.8,38.6,37,3,1.6,12.3,6.9,20.8,11.8s15.6,8.9,15.9,8.9c.2,0,5.9,3.1,12.5,7,6.6,3.8,12.2,7,12.5,7,1.7,0,14.3,8.2,14.9,9.7.4,1,1.6,7.9,2.6,15.3,1.1,7.4,2.6,17.8,3.4,23s2.3,16,3.4,24c3.9,27.3,4.8,31.7,7.7,37,4.8,8.8,12.5,12.2,22.7,10,5.8-1.2,8.7-3.4,17.1-13,2.1-2.5,8.9-10.1,15.1-17s12.7-14.2,14.5-16.2c2.7-3.1,3.7-3.6,6.4-3.2,1.7.3,5.6-.2,8.6-1l5.5-1.5,6,3.4c3.3,1.8,9.2,5,13,7,3.9,2.1,7.5,4.1,8,4.5.6.4,5.1,2.9,10,5.5,5,2.7,10.7,5.9,12.7,7.2,2.1,1.2,4,2.3,4.4,2.3.3,0,3.6,1.7,7.2,3.9,8.5,4.9,21.1,11.7,28.5,15.4,4.6,2.3,7.3,3,12.6,3.1,10.8.2,15.6-4.4,15.5-14.5-.1-7.6-1.9-10.8-16.7-29.7-6.8-8.6-14.7-18.9-17.7-22.7-2.9-3.9-6.3-8.2-7.4-9.6-1.2-1.4-3.2-4.1-4.6-5.9s-4-5.2-5.8-7.4c-8.6-10.6-11.4-14.6-10.2-14.6.6,0,5.4,2.5,10.6,5.5,5.3,3,9.8,5.5,10.1,5.5.2,0,3.5,1.8,7.1,3.9,3.7,2.1,10.3,5.8,14.7,8.2,4.4,2.3,9.7,5.3,11.7,6.6,2.1,1.2,4,2.3,4.4,2.3.3,0,3.6,1.7,7.2,3.9,8.5,4.9,21.1,11.7,28.5,15.4,4.6,2.3,7.3,3,12.6,3.1,10.8.2,15.6-4.4,15.5-14.5-.1-7.6-1.9-10.8-16.7-29.7-6.8-8.6-14.7-18.9-17.7-22.7-2.9-3.9-6.3-8.2-7.4-9.6-1.2-1.4-3.2-4.1-4.6-5.9s-3.8-5-5.5-7c-1.6-2-4.1-5.2-5.5-7s-3.4-4.5-4.6-5.9c-1.1-1.4-4.4-5.7-7.3-9.4l-5.2-6.8,4.8-5.5c2.6-3,6.2-7.2,7.8-9.3,1.7-2,7.1-8.4,12-14.2,5-5.7,10.7-12.4,12.7-14.9s5-6.1,6.8-8c4-4.4,5-6.9,5-12.7,0-7.9-5.3-15.6-13.5-19.4-3.7-1.7-7.4-1.9-53.5-1.9h-49.5l-7.3-9.4c-4-5.1-8-10.2-9-11.4-.9-1.1-2.9-3.5-4.4-5.3-1.4-1.9-7.3-9.3-13-16.4-5.6-7.2-16.1-20.4-23.3-29.5C177.75-.1,177.85,0,167.15,0,164.05,0,160.05.8,158.25,1.6h0ZM178.05,10c2.6,2.8,8.7,10.1,13.5,16.3,4.9,6.2,20.1,25.4,33.9,42.7s26.2,33,27.5,34.7l2.4,3.3h101.3l4.6,3.1c5.8,3.8,8.7,8.4,8.7,13.8,0,3.6-.7,4.9-5.2,10-2.9,3.2-10.7,12.2-17.3,20.1s-15.7,18.5-20.2,23.7c-4.6,5.1-8.3,9.6-8.3,9.9s1.9,2.9,4.3,5.9c2.3,2.9,7.6,9.6,11.7,15,4.1,5.3,9.8,12.5,12.5,16,2.8,3.5,7.4,9.5,10.3,13.2,2.9,3.7,11.4,14.7,18.8,24.3,18.4,23.6,18.6,23.9,18.7,30,.1,7.3-2.3,9.5-10.3,9.3-5.1-.1-7.2-.8-14.7-5-4.8-2.6-9.2-5-9.8-5.2-.5-.2-5.1-2.8-10.2-5.7-5.1-3-9.5-5.4-9.8-5.4s-4.8-2.5-10-5.5c-5.1-3-9.6-5.5-10-5.5-.3,0-4.4-2.3-9.1-5-4.7-2.8-8.7-5-9-5s-3.6-1.7-7.2-3.9c-3.7-2.1-10.7-6-15.6-8.6l-9-4.8-2.9,3.4c-1.6,1.9-8.4,9.5-15.1,16.9-6.7,7.4-17,19-23,25.8-11.3,12.7-12.7,13.7-20.4,13.6-5.3-.1-8.9-2.6-12.2-8.5-2.5-4.4-3.2-8-7-34.9-1.1-7.4-2.6-18-3.4-23.5-.9-5.5-2.5-16.1-3.6-23.5s-2.2-14.9-2.6-16.5c-.6-3.2-1-3.5-16.4-11.7-4.1-2.2-11.2-6.2-15.7-8.9-4.6-2.7-8.6-4.9-8.9-4.9-.2,0-8.9-4.8-19.2-10.7-10.3-5.9-25.3-14.4-33.4-19-17.7-10.1-21.8-14.1-21.8-20.9,0-3.9.5-5.1,3.4-8l3.4-3.4h48.1c29.7,0,48.1-.4,48.1-1,0-.5-.4-3.1-1-5.7-.5-2.6-1.7-10.7-2.6-17.8-.8-7.2-2.4-19.5-3.4-27.5-5.7-43.9-5.7-43.4-1.5-47.6,2-2,3.4-2.4,8.2-2.4,5.6,0,5.8.1,10.4,5ZM118.05,60c5,5.3,32.9,40.5,32.9,41.4,0,.3-1.7.6-3.9.6-3.8,0-4-.2-18.5-18.5-8.1-10.1-15.7-19.1-16.9-20-2.4-1.7-7.3-2-8.2-.5-.4.6.3,8.6,1.5,17.8s2.2,17.6,2.3,18.7c.2,1.6-.5,2.1-3,2.3-4,.4-3.6,1.6-6.9-24.8-1.7-13.8-1.4-16.1,2.1-19.6,2-2,3.4-2.4,8.2-2.4,5.6,0,5.8.1,10.4,5ZM111.65,159.6c2.4,1.4,4.1,2.9,3.8,3.5-.4.5-20.3.9-50.5.9-27.4,0-50.5.3-51.4.6-2.3.9-2,5.7.7,8.5,1.2,1.4,8.1,5.8,15.2,9.8,33.6,19.1,60.5,34.2,77,43.4,9.9,5.4,18.5,10.3,19.1,10.8s1.5,2.8,1.8,5.2c.8,4.9,5,32.6,7.1,47.2,7.2,50,7,48.8,10.2,52.5,2.4,2.9,5.3,3.7,8.7,2.4.9-.3,10.4-10.5,21.2-22.5l19.6-21.8,2.4,1.7c2.9,2.1,3,3.4.3,5.8-1.2,1-10.2,11-20.1,22.2-11.8,13.2-19,20.5-20.7,20.9-4.8,1.3-11.1.7-13.9-1.4-1.5-1.1-3.8-4-5.2-6.4-2.5-4.4-3.2-8-7-34.9-1.1-7.4-2.6-18-3.4-23.5-.9-5.5-2.5-16.1-3.6-23.5s-2.2-14.9-2.6-16.5c-.6-3.2-1-3.5-16.4-11.7-4.1-2.2-11.2-6.2-15.7-8.9-4.6-2.7-8.6-4.9-8.9-4.9-.2,0-8.9-4.8-19.2-10.7-10.3-5.9-25.3-14.4-33.4-19-17.7-10.1-21.8-14.1-21.8-20.9,0-3.9.5-5.1,3.4-8l3.4-3.4h95.5l4.4,2.6ZM279.25,264c2.3,3,6.2,8.1,8.7,11.2s6.9,8.7,9.8,12.5c2.9,3.7,11.4,14.7,18.8,24.3,18.4,23.6,18.6,23.9,18.7,30,.1,7.3-2.3,9.5-10.3,9.3-5.1-.1-7.2-.8-14.7-5-4.8-2.6-9.2-5-9.8-5.2-.5-.2-5.1-2.8-10.2-5.7-5.1-3-9.5-5.4-9.8-5.4s-4.8-2.5-10-5.5c-5.1-3-9.6-5.5-10-5.5s-3.3-1.5-6.4-3.4c-3.1-1.8-9-5.2-13.1-7.4-11.2-6-14-7.6-14-8.3,0-.4.8-1.7,1.8-2.9l1.9-2.3,36.4,20c53.2,29.3,55.2,30.3,58.7,30.3,2.8,0,3.2-.3,3.2-2.8,0-3.1-2.1-6-38.8-53-13.9-17.8-25.2-32.5-25.2-32.7s1-1.4,2.3-2.5l2.2-2.1,2.8,3.3c1.5,1.8,4.7,5.8,7,8.8Z"/>
      <path class="cls-1" d="M163.35,13.3c-.5,1.3.5,9.4,5.6,47.7,1.1,8.5,2.7,20.4,3.5,26.5.8,6,1.9,14.1,2.4,17.9.6,3.8.8,7.3.5,7.8-.3.4-23,.8-50.4.8s-50.5.3-51.4.6c-2.3.9-2,5.7.7,8.5,1.2,1.4,8.1,5.8,15.2,9.8,33.6,19.1,60.5,34.2,77,43.4,9.9,5.4,18.5,10.3,19.1,10.8s1.5,2.8,1.8,5.2c.8,4.9,5,32.6,7.1,47.2,7.2,50,7,48.8,10.2,52.5,2.4,2.9,5.3,3.7,8.7,2.4,1.4-.5,12.5-12.6,45-49.1,9.9-11.1,11.1-12.1,13-11.1,1.1.6,21.9,12,46.1,25.3,62.2,34.2,64.8,35.5,68.4,35.5,2.7,0,3.1-.3,3.1-2.8,0-3.2-1.2-4.8-46.3-62.6-28.3-36.4-32.5-42.2-31.4-43.7.6-.9,6.6-7.9,13.3-15.5,23.6-27.2,38.4-45.4,38.4-47.3,0-1.1-1.5-3.6-3.4-5.5l-3.3-3.6h-50.4c-27.7,0-51.3-.3-52.4-.6s-3.8-2.9-6.1-5.7C189.45,34.7,173.45,14.8,171.65,13.5c-2.7-1.9-7.6-2-8.3-.2h0Z"/>
    </g>
  </g>
</svg>