<?xml version="1.0" encoding="UTF-8"?>
<svg id="Layer_2" data-name="Layer 2" xmlns="http://www.w3.org/2000/svg" viewBox="0 0 459 131.03">
  <defs>
    <style>
      .cls-1 {
        fill-rule: evenodd;
      }
    </style>
  </defs>
  <g id="Layer_4" data-name="Layer 4">
    <g>
      <path class="cls-1" d="M195.5.23c-36.4,2.2-55.7,4.2-81.4,8.5-34.3,5.6-61.4,13.5-82.6,23.9-42,20.5-42,45.5,0,66,32.2,15.8,77.7,25.7,143,31.2,8.8.7,31.4,1.2,55,1.2,49.2,0,75.5-1.9,115.4-8.5,34.3-5.6,61.4-13.5,82.6-23.9,42-20.5,42-45.5,0-66-31.9-15.6-77.6-25.7-141.5-31-12.5-1.1-79.1-2.1-90.5-1.4ZM166.8,32.73c54.7,3.9,93.2,17.1,93.2,31.9s-38.5,28-93.2,31.9c-76,5.5-153.8-10.7-153.8-31.9s77.9-37.4,153.8-31.9Z"/>
      <path class="cls-1" d="M120.2,47.03c-3.3,12.7-12.6,15.9-49.2,17.4l-17.5.7,18.5.8c35.8,1.4,44.9,4.7,48.2,17.3.7,2.4,1.5,4.4,1.8,4.4s1.1-2,1.8-4.4c3.3-12.7,12.6-15.9,49.2-17.4l17.5-.7-18.5-.8c-35.8-1.4-44.9-4.7-48.2-17.3-.7-2.4-1.5-4.4-1.8-4.4s-1.1,2-1.8,4.4Z"/>
    </g>
  </g>
</svg>