<?xml version="1.0" encoding="UTF-8"?>
<svg id="Layer_2" data-name="Layer 2" xmlns="http://www.w3.org/2000/svg" viewBox="0 0 295.82 283.73">
  <defs>
    <style>
      .cls-1 {
        fill-rule: evenodd;
      }
    </style>
  </defs>
  <g id="Layer_12" data-name="Layer 12">
    <path class="cls-1" d="M140.91.62c-4.6,1.5-8.5,3.9-11.7,7.3-1.7,1.8-9.3,15.8-17.3,31.8-7.8,15.7-15.2,29.9-16.5,31.5-5.1,6.8-9.4,8-44.1,13-26,3.8-32.9,5.1-37.2,7.2C4.91,95.82-.89,106.22.11,116.52c.9,9.3,3.4,12.6,27.9,36.2,12.6,12.2,24.1,24.2,25.5,26.6,4.3,7.3,4.1,11.8-1.5,44-5.4,30.7-6,38.3-3.7,43.9,5.1,12,19.7,19.3,31.2,15.5,2.1-.7,16.2-7.8,31.1-15.7,15-7.9,29.5-14.8,32.3-15.5,3.8-.9,6.2-.9,10,0,2.8.7,17.3,7.6,32.3,15.5,14.9,7.9,29,15,31.1,15.7,11.5,3.8,26.1-3.5,31.2-15.5,2.3-5.6,1.7-13.2-3.7-43.9-5.6-32.2-5.8-36.7-1.5-44,1.4-2.4,12.9-14.4,25.5-26.6,24.5-23.6,27-26.9,27.9-36.2,1-10.3-4.8-20.7-14-25.1-4.3-2.1-11.2-3.4-37.2-7.2-34.7-5-39-6.2-44.1-13-1.3-1.6-8.7-15.8-16.5-31.5-8-16-15.6-30-17.3-31.8-1.8-1.9-5-4.3-7.2-5.4-4.3-2.2-14.4-3.3-18.5-1.9Z"/>
  </g>
</svg>